<svg id="Capa_1" data-name="Capa 1" xmlns="http://www.w3.org/2000/svg" viewBox="0 0 540.3 273.13"><defs><style>.cls-1{fill:#fdab13;}.cls-2{fill:#f9f8f7;}.cls-3{fill:#fcfcfc;}.cls-4,.cls-5{fill:#fff;}.cls-5{font-size:186.49px;font-family:Rockwell-ExtraBold, Rockwell Extra Bold;font-weight:800;}</style></defs><path class="cls-1" d="M540.3,146.54c0,63.4-114.76,105-222.75,120.33-123,0-222.75-55.35-222.75-118.75,6.06-63,102.75-121.9,225.77-121.9C432.69,34.12,540.3,83.14,540.3,146.54Z" transform="translate(0 -9.15)"/><path class="cls-2" d="M109.4,106.17c12.67-15.09,27.77-28.1,43.59-39.83C205.31,27.83,270.85,5.46,336.16,9.65,406.5,13.54,472.42,48.32,521.6,97.59q5.13,5.28,10.15,10.67c-4.1-2.73-8-5.6-12.09-8.34-12-8.11-24.35-16.16-36.9-23.31C433.64,47.92,378.19,28.94,321,29.17c-76.29-.18-150.8,31.77-211.57,77Z" transform="translate(0 -9.15)"/><path class="cls-3" d="M105.1,185.26c68.17,50.86,154,84.72,239.68,75.56,47.45-4.77,92.54-22.08,133.68-46,12.55-7.15,24.89-15.2,36.91-23.31,4-2.74,8-5.61,12.08-8.34-3.34,3.6-6.73,7.14-10.15,10.67-49.18,49.27-115.11,84-185.44,87.93C266.55,286,201,263.61,148.69,225.09c-15.82-11.73-30.91-24.73-43.59-39.83Z" transform="translate(0 -9.15)"/><polygon class="cls-4" points="135.29 100.41 176.77 72.24 186.95 83.19 186.95 120.37 181.47 139.24 186.95 143.06 186.95 196.28 191.25 198.63 191.25 218.59 170.12 208.8 171.29 167.33 161.12 145.41 155.64 145.41 156.82 173.19 160.34 175.54 159.95 196.67 135.29 179.46 135.29 164.59 138.43 167.33 140.38 115.67 135.29 113.72 135.29 100.41"/><polygon class="cls-1" points="155.25 112.54 166.99 105.11 166.99 123.11 155.25 123.11 155.25 112.54"/><polyline class="cls-4" points="195.56 58.15 225.69 44.85 225.69 64.02 220.99 66.37 221.77 204.11 225.69 206.85 237.03 206.85 238.99 206.85 238.99 58.93 235.08 61.28 235.86 40.93 265.6 34.28 265.6 51.89 260.9 52.28 259.73 229.34 248.77 241.28 210.03 229.34 200.25 218.59 201.38 77.32 195.56 77.72 195.56 60.11"/><polygon class="cls-4" points="295.34 32.33 338.38 32.33 356.38 47.59 356.38 76.93 330.17 76.93 329.38 64.41 325.93 60.89 307.47 61.28 303.17 65.59 303.17 201.76 309.03 207.24 324.67 207.34 329.84 201.83 329.9 176.33 317.67 176.33 317.67 137.78 356.38 137.78 356.38 227.59 337.6 243.24 295.34 244.8 276.17 229.34 276.17 47.59 295.34 32.33"/><polygon class="cls-4" points="364.01 32.33 416.06 43.48 426.82 65 426.82 119.78 420.56 136.02 426.82 149.91 426.82 211.15 415.67 231.5 363.03 242.26 363.03 215.06 367.53 215.06 368.12 59.33 363.03 59.52 364.01 32.33"/><polygon class="cls-1" points="388.67 69.3 406.67 71.46 410.58 77.52 410.58 113.52 407.25 119.78 388.67 119.78 388.67 69.3"/><polygon class="cls-1" points="388.67 150.69 407.06 150.69 410.58 156.37 410.58 198.04 407.06 203.13 388.67 206.06 388.67 150.69"/><polygon class="cls-4" points="431.12 47.59 465.17 66.56 463.4 84.17 458.71 82.61 466.34 113.33 477.3 96.5 470.45 90.04 473.97 73.61 498.62 94.54 498.62 113.33 490.01 105.5 471.62 134.06 469.67 176.72 477.1 174.37 477.3 193.54 443.84 214.87 443.06 193.15 452.84 187.87 452.64 131.23 439.73 73.61 431.12 69.3 431.12 47.59"/><text class="cls-5" transform="translate(0 199.53)">+</text></svg>